<?xml version="1.0" encoding="UTF-8" standalone="no"?>
<!-- Created with Inkscape (http://www.inkscape.org/) -->

<svg
   version="1.1"
   id="svg1"
   width="551.74756"
   height="1037.0404"
   viewBox="0 0 551.74756 1037.0404"
   sodipodi:docname="88b.svg"
   inkscape:version="1.3 (0e150ed6c4, 2023-07-21)"
   xmlns:inkscape="http://www.inkscape.org/namespaces/inkscape"
   xmlns:sodipodi="http://sodipodi.sourceforge.net/DTD/sodipodi-0.dtd"
   xmlns="http://www.w3.org/2000/svg"
   xmlns:svg="http://www.w3.org/2000/svg">
  <defs
     id="defs1" />
  <sodipodi:namedview
     id="namedview1"
     pagecolor="#ffffff"
     bordercolor="#000000"
     borderopacity="0.25"
     inkscape:showpageshadow="2"
     inkscape:pageopacity="0.0"
     inkscape:pagecheckerboard="0"
     inkscape:deskcolor="#d1d1d1"
     showgrid="false"
     inkscape:zoom="0.83039936"
     inkscape:cx="157.75542"
     inkscape:cy="650.89164"
     inkscape:window-width="1920"
     inkscape:window-height="1011"
     inkscape:window-x="0"
     inkscape:window-y="0"
     inkscape:window-maximized="1"
     inkscape:current-layer="layer1" />
  <g
     inkscape:groupmode="layer"
     id="layer1"
     inkscape:label="Layer 1"
     transform="translate(-58.73679,-10.954665)">
    <path
       style="fill:#fff6d5;stroke:#030303;stroke-width:1.898"
       d="m 184.8013,102.08403 -26.99407,48.06878 10.45588,60.4156 -11.17061,-4.26908 -7.13594,4.48141 1.80714,9.45334 3.49888,24.73206 10.0137,15.43817 8.69403,18.54676 8.60292,8.57559 7.42092,2.76582 15.31911,35.56773 17.50705,19.33516 25.80789,18.26943 21.70302,12.68942 23.094,-0.84658 18.16217,-4.40704 17.17604,-6.87295 14.08846,-23.60148 19.61888,-30.82967 1.13723,-28.17692 7.9329,-8.25584 9.85673,-25.97282 0.26181,-25.11702 -1.692,-28.42373 -6.89717,-4.84994 -24.58069,-17.2337 -7.91791,-34.48241 -3.13141,-15.38139 -2.65737,-8.4127 8.42654,-14.180725 1.14761,-5.540806 -39.68873,-19.204821 -25.68217,14.981167 -19.76536,33.678505 -38.65301,-11.59717 z"
       id="path2" />
    <path
       style="fill:#b3b3b3;stroke:#030303;stroke-width:1.898"
       d="m 342.3271,57.362953 17.12183,28.731686 1.70699,14.689361 -6.8222,70.35463 -7.19244,-0.71394 -12.42875,-55.92939 7.67224,-14.824302 1.57436,-6.754155 -15.80814,-10.975502 2.98032,-24.597996 z"
       id="path3" />
    <path
       style="fill:#b3b3b3;stroke:#030303;stroke-width:1.898"
       d="m 152.5222,102.9708 10.03089,-33.917254 17.90612,-19.000674 c 0,0 39.03593,-19.767668 41.87668,-20.525434 2.84076,-0.757767 45.26184,-3.862648 45.26184,-3.862648 l 17.08838,5.175187 17.95456,19.729606 -31.75813,22.828721 -41.82709,17.74119 -44.77742,4.763433 z"
       id="path4" />
    <path
       style="fill:#ff0000;stroke:#030303;stroke-width:1.898"
       d="m 214.98775,344.41684 41.78211,115.2347 60.09537,-0.92962 9.20277,-26.41572 9.38846,-36.59884 9.50264,-41.4534 -11.34804,0.42675 -5.07138,8.40233 -17.2118,8.10014 -22.82641,6.46927 -14.02848,-0.27566 -17.31906,-7.68723 -20.59233,-15.61783 z"
       id="path5" />
    <path
       style="fill:#ff0000;stroke:#030303;stroke-width:1.898"
       d="m 526.6306,365.55593 -5.79319,9.15091 17.96555,20.97995 24.52494,20.14028 9.06031,-3.06575 2.18276,-6.37614 -15.75862,-13.8789 -21.5196,-19.23314 z"
       id="path6" />
    <path
       style="fill:#ff0000;stroke:#030303;stroke-width:1.898"
       d="m 156.89393,573.74858 -9.5778,27.38932 -12.37675,24.66992 -7.67694,0.25976 -0.0483,-5.78314 12.34956,-34.08965 7.39805,-11.95388 z"
       id="path7" />
    <path
       style="fill:#fff6d5;stroke:#030303;stroke-width:1.898"
       d="m 259.78309,560.65096 5.35725,13.69466 -8.53777,25.96669 -17.78433,23.48692 -13.19125,5.68446 -50.62353,-14.11954 -3.85609,-5.39248 -12.30727,-11.60955 -6.90673,-8.35856 1.90287,-7.99509 5.8969,-9.70869 10.34902,-3.2208 28.88142,-9.57377 31.2001,-11.03467 14.80819,5.57774 z"
       id="path8" />
    <path
       style="fill:#fff6d5;stroke:#030303;stroke-width:1.898"
       d="m 542.00074,244.15081 -3.24015,-8.55106 -1.6213,-2.55371 -3.86285,-0.4184 -1.47257,1.68668 -0.58266,9.54721 -0.523,36.05597 1.72182,34.33499 0.83435,19.51446 3.35619,7.14794 -2.90184,12.91976 -2.20314,7.33182 -0.44945,6.3283 30.64456,28.71682 12.95407,-24.79922 7.37922,-8.94086 4.79199,-11.76425 6.82679,-20.29813 5.20222,-11.99796 3.0236,-15.55518 -1.69975,-4.76094 -21.77317,-22.85594 -5.70234,-4.02465 -11.99224,3.42974 -8.34023,8.15145 -5.72113,-2.94433 z"
       id="path9" />
    <path
       style="fill:#0000ff;stroke:#030303;stroke-width:1.898"
       d="m 185.0684,699.12914 5.2335,38.4469 5.72041,59.02783 2.8224,83.698 2.1828,52.11997 -4.79259,8.27232 -0.53207,18.65693 8.36809,11.59374 10.18642,2.49939 25.00849,-15.09874 3.38262,-19.20363 0.5334,-61.60008 3.18176,-44.43293 10.19839,-83.71678 8.12467,-35.53941 6.90756,-10.70386 13.53712,-0.84998 19.5987,30.54199 24.56421,88.13692 12.45702,59.0967 10.0707,44.0525 4.6782,28.60127 9.44951,14.59328 34.81449,0.34052 4.63696,-14.61722 -5.91525,-20.28506 -17.14587,-74.93634 -2.1256,-25.72943 -2.04314,-75.25559 -4.14348,-57.96206 -12.76828,-7.31327 -43.60689,7.27868 -28.21419,0.54271 -13.12078,1.23041 -28.74493,-0.68105 -36.75254,-3.43981 z"
       id="path10" />
    <path
       style="fill:#ffb380;stroke:#030303;stroke-width:1.898"
       d="m 290.92737,513.31104 27.62178,-62.60276 9.18086,-24.63837 8.6503,-31.45249 12.47719,-8.51882 18.63621,3.23522 35.68192,2.30905 14.39871,9.37462 19.86109,18.20486 c 0,0 11.91666,9.88209 13.56021,10.98356 1.64356,1.10147 14.86122,11.15774 14.86122,11.15774 l 13.5579,-5.19941 22.57729,-30.16879 16.99842,-27.15157 8.8037,6.6296 43.86164,37.62304 -1.48324,5.29744 -36.35895,37.03252 -23.24047,23.70067 -18.36517,10.22119 -17.69621,7.22704 -47.63086,-24.92671 -18.33633,-9.69987 -16.39866,12.72633 -42.79708,60.68705 15.40676,31.6601 7.14976,27.12965 4.16945,47.8823 0.92731,32.25639 -17.21064,5.26631 -97.29397,14.01348 -74.23919,-13.07925 -13.08502,-5.57656 -4.66886,-13.43911 9.97438,-45.77162 28.892,3.18677 18.43437,1.59396 c 0,0 17.32252,-11.0274 18.92455,-12.79206 1.60204,-1.76467 13.27072,-21.04329 13.27072,-21.04329 l 5.5235,-22.88293 -9.05282,-15.23953 -16.77467,-5.85798 -8.25239,-4.46586 c 0,0 -26.81477,9.35616 -28.01313,9.61913 -1.19835,0.26297 -34.88032,10.2385 -34.88032,10.2385 l -19.9499,3.84304 -16.08841,33.96454 -7.20627,21.17478 -11.44724,-2.04032 -44.337978,-58.75861 26.967025,-68.35813 14.928113,-30.29682 3.15448,-20.70651 7.0102,-18.57162 17.65007,-19.53469 36.69689,-22.48386 24.47112,-19.51739 11.84861,-22.01097 7.40004,6.12556 12.03661,40.98167 16.15068,41.25501 7.03097,18.02262 -7.10593,4.88684 -87.34728,-16.68009 -11.88898,26.59795 -14.40678,56.52683 -6.87526,30.13534 23.39618,12.05622 7.68492,2.25138 8.69875,0.95845 47.51552,-15.42983 20.94757,-6.79798 3.71271,4.11178 3.02876,2.65276 3.11295,1.60895 7.46464,-10.57297 11.19003,-42.43492 9.62144,5.67806 z"
       id="path11" />
    <path
       style="fill:#c8b7b7;stroke:#030303;stroke-width:1.898"
       d="m 236.77751,965.85754 -0.37725,24.32042 -6.25267,17.59554 -22.89036,22.3018 -24.23213,9.8579 -17.27311,-9.1356 -0.9779,-13.0203 10.88265,-24.92249 11.96891,-19.37607 10.18033,-6.2995 7.89143,4.03602 10.08936,1.10231 11.53146,-5.92627 z"
       id="path12" />
    <path
       style="fill:#c8b7b7;stroke:#030303;stroke-width:1.898"
       d="m 374.929,971.31024 3.83267,32.84056 49.05822,25.0442 25.70901,-5.2467 -5.10622,-16.7781 -28.15844,-34.03793 -10.05592,-5.45805 z"
       id="path13" />
    <path
       style="fill:#808000;stroke:#030303;stroke-width:1.898"
       d="m 267.15331,481.43573 -8.44051,46.44725 -12.08192,28.61161 -7.9092,-4.29224 -8.6608,-4.59894 -12.3771,5.66588 -23.94212,6.98192 -31.98666,10.75005 -30.6447,-12.12657 -1.54354,-9.03949 18.02714,-77.60167 9.38218,-18.13801 26.25454,7.66585 43.28531,11.1345 32.62884,6.00569 z"
       id="path14" />
    <path
       style="fill:#e6e6e6;stroke:#030303;stroke-width:1.898"
       d="m 254.54807,457.24603 -0.73331,21.87234 -23.07519,-5.58958 -37.81581,-9.70705 -35.56334,-8.08611 -1.68114,-9.996 9.79242,-4.43926 30.50679,5.59285 28.26089,5.31486 z"
       id="path15" />
    <path
       style="fill:#000000"
       d="M 171.33333,1045.5193 C 163.28004,1040.5448 160,1033.7402 160,1022.0077 c 0,-4.9735 -0.67587,-7.5394 -2.396,-9.0961 -2.97232,-2.6899 -18.45867,-9.8255 -34.0721,-15.69927 -11.60707,-4.36658 -11.86853,-4.4012 -15.87549,-2.10151 -5.73413,3.29093 -7.721364,0.83292 -3.07946,-3.80898 4.49445,-4.49446 6.70772,-4.1478 30.15593,4.72321 22.03011,8.33455 30.34483,10.80055 31.28525,9.27895 0.92093,-1.4901 -5.08832,-4.5793 -24.24766,-12.46524 C 123.95622,985.50648 107.46107,980 103.31085,980 c -5.711755,0 -8.532566,-4.05747 -12.050369,-17.33333 -4.329337,-16.33852 -9.226099,-26.70071 -19.752196,-41.79825 -4.681493,-6.71464 -9.486013,-15.07791 -10.676712,-18.58503 -2.591079,-7.63184 -2.814835,-15.45102 -0.467924,-16.35161 1.861235,-0.71422 51.668871,19.2206 93.636351,37.47666 30.00699,13.05319 34.72578,14.27952 38.57587,10.02523 3.05518,-3.37595 1.40118,-5.89566 -3.42209,-5.21322 -2.14296,0.3032 -3.02821,1.19407 -2.762,2.77955 0.21548,1.28333 0.0179,2.33333 -0.43916,2.33333 -1.38968,0 -82.82126,-37.09016 -98.56089,-44.89216 -15.487113,-7.67683 -18.728986,-9.7745 -15.106144,-9.7745 2.259331,0 21.557317,8.50027 75.519974,33.26462 17.85972,8.19612 32.74913,14.62513 33.08757,14.28669 1.5874,-1.58739 -11.00155,-8.76151 -39.01309,-22.23256 -45.09541,-21.68685 -52.9205,-25.74934 -54.423943,-28.2548 -2.064829,-3.44101 -0.734536,-3.78943 8.621631,-2.25811 4.723912,0.77316 10.688942,1.72583 13.255602,2.11704 4.26441,0.64999 4.40808,0.80956 1.66667,1.85124 -1.65,0.62697 -3,1.98581 -3,3.01965 0,3.72438 4.26401,5.47405 13.833,5.67616 9.13406,0.19292 10.34851,0.63545 31.50033,11.47847 21.03319,10.78221 35.57732,16.93708 34.00285,14.38954 -0.40505,-0.65539 -6.14766,-4.0447 -12.76135,-7.53182 -6.61369,-3.48711 -12.67209,-7.12003 -13.46312,-8.07316 -2.86088,-3.44715 5.61751,-1.80112 18.54479,3.60037 7.02029,2.93333 13.65678,5.33333 14.74774,5.33333 1.73026,0 1.88366,-5.32121 1.20116,-41.66666 -1.03121,-54.9153 -4.59527,-102.8737 -10.37943,-139.66667 -3.30761,-21.03973 -5.73431,-29.51731 -9.37901,-32.76531 -7.22817,-6.44144 -8.1236,-17.46976 -3.78742,-46.64665 C 175.76173,619.67716 174.63931,616 163.33333,616 c -6.98345,0 -9.20121,1.65069 -14.76944,10.99296 -10.1138,16.96874 -14.93699,19.09798 -26.26474,11.59479 -6.7745,-4.48724 -18.90359,-17.04996 -26.014712,-26.94476 -2.717318,-3.78103 -7.561049,-8.10557 -11.953348,-10.6721 -4.061607,-2.37329 -8.544595,-5.86858 -9.962196,-7.7673 -3.138012,-4.20303 -8.108429,-31.18233 -7.347677,-39.88302 0.372173,-4.25652 4.261228,-13.42786 13.314769,-31.39945 15.762293,-31.28869 21.266254,-44.45626 25.670344,-61.41318 4.09253,-15.75736 15.97113,-40.65721 23.00568,-48.22437 2.93467,-3.15686 15.2423,-11.46493 29.89808,-20.18221 20.28764,-12.06712 26.30992,-16.35844 32.45371,-23.12563 8.72257,-9.60764 17.96953,-24.43458 17.96953,-28.81305 0,-1.65855 -1.79614,-5.62616 -3.99144,-8.81691 -2.19529,-3.19074 -4.66992,-8.99885 -5.49917,-12.9069 -1.71673,-8.0905 -6.78112,-18.95155 -10.9898,-23.56863 -1.56911,-1.72136 -5.01013,-4.23622 -7.64673,-5.58857 -3.63137,-1.86259 -6.03428,-4.82178 -9.90951,-12.20358 -2.81364,-5.35961 -7.64588,-13.44423 -10.7383,-17.96582 -3.42099,-5.00199 -6.21498,-11.00597 -7.13547,-15.33333 -0.83208,-3.91175 -2.77141,-10.85574 -4.3096,-15.4311 -4.30462,-12.80405 -1.59565,-25.63417 5.42667,-25.70159 5.86684,-0.0563 6.05479,-2.08076 1.13203,-12.19306 -7.54283,-15.49441 -14.07841,-47.24038 -12.43527,-60.40316 1.63303,-13.0818 6.41346,-34.882216 10.37352,-47.306849 l 4.01281,-12.590153 14.18847,-13.845484 c 20.97724,-20.47016 41.37443,-33.175263 67.09493,-41.79242 10.06669,-3.372653 13.52653,-3.945687 20.28199,-3.359199 4.47968,0.388911 11.87495,0.924473 16.43393,1.190139 6.85959,0.399729 9.50384,1.306761 15.33333,5.259645 3.87435,2.627139 9.14428,5.828896 11.71095,7.115014 2.56666,1.286118 8.86666,5.134289 14,8.551491 5.13333,3.417202 12.7549,7.859119 16.93681,9.870926 9.06244,4.359693 19.10911,14.933311 21.05482,22.159135 0.74846,2.779566 2.19891,5.749295 3.22322,6.599398 4.0108,3.328666 9.79622,48.335677 10.8961,84.764997 0.93168,30.85789 0.65873,29.67784 6.82038,29.48716 4.20083,-0.13001 5.25397,0.42731 6.80018,3.59861 2.63939,5.41343 3.53915,31.08837 1.6908,48.24756 -2.5402,23.58207 -4.93094,31.02503 -12.54068,39.04217 -4.01942,4.2346 -4.15513,4.77127 -4.2146,16.66666 -0.0532,10.64281 -0.55683,13.30826 -3.75531,19.87519 -2.03162,4.17121 -6.61385,11.34163 -10.18273,15.93426 l -6.48889,8.35023 4.14988,6.06575 c 9.41961,13.76833 19.58742,22.40685 39.90974,33.90712 9.57154,5.41647 25.24645,17.68129 43.52802,34.05847 20.27058,18.15899 28.6981,24.43348 32.81755,24.43348 11.01938,0 28.68113,-21.06459 47.55,-56.71133 4.96223,-9.37456 10.83365,-18.85607 13.0476,-21.07002 2.21394,-2.21394 4.75037,-6.44524 5.6365,-9.40288 1.38519,-4.62335 1.26169,-6.24973 -0.88058,-11.59665 -2.2316,-5.56986 -2.54015,-11.09098 -2.95558,-52.88578 -0.50361,-50.66554 -0.1879,-53.33334 6.31151,-53.33334 2.18036,0 3.80919,1.11481 4.87028,3.33334 2.32089,4.85252 7.10831,29.41094 7.10831,36.46409 0,7.03635 1.6185,8.62128 5.7253,5.60657 1.61775,-1.18755 4.9801,-3.63927 7.47188,-5.44826 6.59673,-4.78911 12.86327,-4.42703 18.0729,1.04426 2.26935,2.38334 6.02776,5.33581 8.35202,6.56105 2.57397,1.35687 5.51429,4.74477 7.52172,8.66666 1.81268,3.54143 4.6284,7.24496 6.25717,8.23008 2.72136,1.64594 2.89621,2.48905 2.15725,10.40236 -0.52088,5.57796 -2.63266,12.93129 -5.99518,20.87555 -2.85508,6.74536 -6.4574,16.50033 -8.00517,21.6777 -1.54777,5.17737 -4.75269,12.07737 -7.12205,15.33334 -5.56694,7.65005 -10.36943,19.32929 -10.38412,25.25326 -0.006,2.56667 0.85306,7.06667 1.90983,10 3.12802,8.68261 2.61789,21.13681 -1.10703,27.0265 -6.51757,10.30531 -50.7579,56.49814 -62.22573,64.97199 -7.44392,5.50048 -32.02285,17.64194 -37.97419,18.75841 -5.98654,1.12309 -14.89065,-3.00007 -23.13762,-10.71414 -5.55148,-5.19276 -7.78106,-6.34228 -14.37703,-7.41249 -4.29364,-0.69665 -14.39823,-2.76041 -22.45465,-4.58614 -11.545,-2.61629 -14.97871,-2.97256 -16.20902,-1.68181 -0.85855,0.90073 -3.76796,7.03768 -6.46537,13.63768 -5.40603,13.22746 -10.39645,22.57015 -18.49895,34.63233 l -5.35075,7.96567 2.28419,15.36767 c 1.2563,8.45222 3.72402,24.97749 5.48384,36.72284 4.6154,30.80413 5.91537,54.90865 7.4053,137.31149 1.45457,80.44761 2.15459,89.59951 10.75027,140.54545 5.87317,34.80982 10.94661,58.77559 14.56206,68.78789 7.75732,21.48242 6.06159,18.86074 28.28549,43.7307 17.42489,19.49953 23.78163,29.11633 24.71403,37.38863 0.57074,5.0635 0.12904,6.377 -3.55595,10.5739 -4.67673,5.3266 -13.82273,10.3068 -18.92796,10.3068 -4.20246,0 -24.11483,-6.6988 -31.14273,-10.4769 -2.92248,-1.5711 -6.83546,-2.8565 -8.69553,-2.8565 -3.82687,0 -16.61776,-3.6322 -28.97857,-8.229 -6.9325,-2.5781 -8.76504,-2.8172 -10.98191,-1.4327 -1.46349,0.9139 -3.66229,1.6617 -4.88622,1.6617 -1.22393,0 -12.66252,-4.2162 -25.41908,-9.3695 -21.1587,-8.5474 -24.15297,-9.4063 -34.1261,-9.7888 -9.33429,-0.3581 -13.2053,-1.3273 -26.48183,-6.63051 -8.55222,-3.41614 -17.13087,-6.21116 -19.06367,-6.21116 -5.96068,0 -13.27986,9.89034 -16.68932,22.55207 -1.22843,4.562 -3.9259,8.1874 -12.1027,16.2659 -5.78707,5.7175 -13.68033,12.5224 -17.54059,15.1221 -6.38345,4.2988 -7.8649,4.7261 -16.36977,4.7216 -6.76936,0 -10.45549,-0.6871 -13.35113,-2.4757 z m 24.327,-15.6614 c 3.11318,-0.3773 7.31318,-2.0165 9.33333,-3.6426 2.02015,-1.626 6.07301,-4.5707 9.00634,-6.5436 14.01569,-9.4269 16.15826,-13.7643 17.16715,-34.7527 0.7054,-14.67461 -0.27358,-16.40256 -6.78649,-11.97848 -6.53486,4.43898 -10.96831,5.86226 -13.70253,4.39895 C 209.30158,976.60276 206.03587,976 203.42099,976 c -3.86543,0 -4.75432,-0.49857 -4.75432,-2.66667 0,-3.53666 -2.8865,-3.38278 -6.25263,0.33334 -3.51829,3.88408 -12.31421,19.17137 -19.07644,33.15483 -6.3667,13.1655 -6.80344,18.4986 -1.83495,22.4068 3.60519,2.8358 5.5389,2.8862 24.15768,0.6296 z m 249.77536,-11.9812 c 1.48468,-1.789 1.29464,-3.0047 -1.20671,-7.7198 -1.63291,-3.0781 -4.45244,-7.1964 -6.26562,-9.1518 -1.81318,-1.95548 -3.29989,-4.03157 -3.30381,-4.61357 -0.004,-0.58201 -4.66588,-6.0208 -10.35993,-12.08621 -9.30681,-9.91379 -10.75427,-10.96229 -14.32622,-10.37749 -2.18537,0.35779 -9.8234,1.02639 -16.9734,1.48578 l -13,0.83526 v 5.26201 c 0,6.20149 4.51428,15.82245 7.4241,15.82245 1.12011,0 3.35791,1.4132 4.9729,3.14047 1.61498,1.7272 8.03633,5.6903 14.26967,8.8069 6.23333,3.1165 12.53333,6.3347 14,7.1515 2.31927,1.2917 10.95226,2.7348 20.17007,3.3718 1.56021,0.1078 3.62973,-0.7595 4.59895,-1.9273 z M 333.91531,999.86296 c -1.10915,-1.79463 -13.8254,-7.83186 -16.53436,-7.84993 -3.46124,-0.0231 1.26431,3.53769 8.61905,6.49461 7.77573,3.12616 9.15579,3.36246 7.91531,1.35532 z m 30.12322,-12.57605 c 2.53575,-3.0554 -0.57256,-15.24777 -5.45285,-21.38882 -5.52664,-6.95437 -9.2525,-19.99132 -9.25163,-32.37187 5.6e-4,-8.02394 -2.29761,-20.1231 -10.80014,-56.85955 -11.2733,-48.70794 -20.07869,-79.93398 -36.51219,-129.48103 -13.2519,-39.95452 -15.046,-43.2229 -22.67515,-41.3081 -6.16837,1.54816 -9.03493,9.96727 -14.58223,42.82813 -1.86055,11.02145 -5.14672,29.02145 -7.3026,40 -6.9231,35.25499 -9.93587,63.96659 -12.30797,117.29433 -1.97784,44.4644 -0.67584,58.41097 4.44999,47.66667 1.22886,-2.57582 2.93636,-3.79636 5.73942,-4.1026 6.26545,-0.68451 6.44742,-2.14936 0.67036,-5.39625 -2.94078,-1.65281 -5.34687,-3.17865 -5.34687,-3.39074 0,-0.2121 3,-0.0974 6.66666,0.25495 C 261,941.38435 264,941.29073 264,940.82398 c 0,-0.46675 -3.03005,-2.71304 -6.73344,-4.99176 -3.70339,-2.27871 -6.48424,-4.39232 -6.17967,-4.69689 0.94261,-0.94261 30.18973,9.94213 41.75216,15.53867 6.58277,3.18625 12.06571,6.85163 13.716,9.16925 1.69201,2.37621 6.95908,5.84081 13.69584,9.00892 19.5948,9.21488 24.34495,12.07819 26.50493,15.97676 1.33657,2.41237 4.31473,4.67743 8.01857,6.09856 7.36834,2.82718 7.22083,2.82145 9.26414,0.35942 z m -189.37186,-1.25617 c 0,-1.0831 -1.36251,-2.86201 -3.0278,-3.95315 -3.26251,-2.13768 -28.54489,-11.80126 -34.75059,-13.28257 -7.6134,-1.81733 -1.96999,1.67981 11.42914,7.08248 7.52542,3.03432 16.08258,6.94664 19.01591,8.69404 6.42965,3.83017 7.33334,4.00999 7.33334,1.4592 z m 96.42225,-3.46117 c -5.56794,-3.56665 -25.72767,-11.84732 -28.91885,-11.87851 -2.11528,-0.0207 -2.23193,0.2945 -0.76377,2.06352 3.41359,4.11313 23.93545,12.51686 30.5937,12.52817 3.25639,0.006 3.23536,-0.0571 -0.91108,-2.71318 z m -89.0682,-6.63485 c 1.13378,-3.57222 -2.45239,-8.99094 -6.64704,-10.04373 -5.84347,-1.46662 -6.91838,0.23643 -2.04035,3.23265 10.98052,6.74453 -8.85383,0.54726 -42,-13.12295 -20.85937,-8.60286 -36.319752,-13.7058 -38.131692,-12.58596 -3.573092,2.20829 1.950971,5.11146 25.227322,13.25822 7.0974,2.48411 22.20437,8.43175 33.57104,13.21698 22.12965,9.31632 28.57074,10.61326 30.02072,6.04479 z m 75.31261,-6.38948 c 0,-1.48657 -12.43238,-8.21191 -15.18043,-8.21191 -3.05901,0 -2.66955,3.62968 0.57582,5.36655 1.50079,0.8032 5.25079,1.95857 8.33333,2.56749 3.08254,0.60892 5.75462,1.17286 5.93795,1.25321 0.18333,0.0803 0.33333,-0.35856 0.33333,-0.97534 z m -38.28901,-3.7246 c 3.82563,-1.93199 9.42057,-5.20226 12.43322,-7.26727 C 239.31829,953.17895 242.52282,944 236.55838,944 c -1.073,0 -6.72427,2.4 -12.55838,5.33333 -5.83411,2.93334 -11.1559,5.33334 -11.8262,5.33334 -0.6703,0 -4.28362,-2.7556 -8.0296,-6.12356 l -6.81087,-6.12356 v 5.54455 c 0,3.0495 0.68682,6.8551 1.52626,8.45689 2.88371,5.50257 9.36639,12.91234 11.29677,12.91234 1.06276,0 5.06234,-1.58071 8.88796,-3.51269 z m -25.71099,-0.27841 c 0,-3.07919 -69.90072,-33.6936 -108.666663,-47.59272 -13.086431,-4.69201 -10.899723,-5.51657 6.666666,-2.51386 7.707038,1.3174 4.629416,-1.32337 -7.109977,-6.10075 -10.640793,-4.3303 -18.890023,-6.25729 -18.890023,-4.41262 0,2.86454 8.541759,12.47632 14.358197,16.15684 3.469658,2.19553 15.00847,7.41091 25.6418,11.58973 48.46295,19.0456 56.74531,22.44925 68.23317,28.04051 11.28579,5.49291 19.76683,7.56647 19.76683,4.83287 z m 202.5,-5.04223 C 398.125,960.04167 400,958.8555 400,957.86407 c 0,-3.8703 -15.14713,-10.60375 -26.9827,-11.99479 -5.87128,-0.69005 -7.57843,-0.37825 -10.35701,1.89163 -3.22813,2.63713 -3.26085,2.82958 -1.10161,6.47848 1.52309,2.57387 4.04765,4.2527 8,5.31997 6.43109,1.73663 19.88623,2.21832 26.27465,0.94064 z m -205.43661,-4.83333 c -0.49784,-1.68587 -15.06382,-9.38817 -20.89703,-11.05008 -5.61684,-1.60026 -1.84747,1.76632 8.24398,7.36305 9.93485,5.50988 13.49794,6.54814 12.65305,3.68703 z M 144,953.47599 c 0,-1.35965 -3.23666,-2.80932 -6.27231,-2.80932 -1.67479,0 -1.74763,0.36941 -0.39436,2 1.79483,2.16264 6.66667,2.75407 6.66667,0.80932 z m 87.66667,-17.27258 c 2.48512,-3.05137 2.14967,-8.35164 -3.62808,-57.32453 -2.91211,-24.68338 -5.65956,-48.06307 -6.10544,-51.95485 -1.003,-8.75454 -3.15885,-8.51661 -5.91776,0.65311 -1.88232,6.25625 -1.98618,4.04843 -1.57301,-33.43931 0.44066,-39.98147 -1.36308,-79.97714 -3.94024,-87.37001 -1.62458,-4.66027 -3.18401,-5.36701 -8.62231,-3.90767 -5.83311,1.56528 -11.21316,6.95617 -11.21316,11.23575 0,1.9561 1.48056,12.93475 3.29013,24.397 5.15229,32.63571 5.95845,45.20046 8.01599,124.93701 1.06106,41.11979 2.32518,75.79515 2.80915,77.05635 1.24534,3.24531 3.54563,2.0242 4.84721,-2.57314 0.60932,-2.15222 1.71605,-14.7589 2.4594,-28.01485 2.15717,-38.46875 4.01185,-37.07455 3.25047,2.44344 l -0.66165,34.34172 7.66131,-4.2168 c 4.21373,-2.31924 8.41132,-5.13769 9.32799,-6.26322 z m -46.42462,5.83197 C 174.51047,936.44381 80.946846,897.25093 73.114769,895.06636 c -4.153544,-1.15852 -8.571119,-1.7153 -9.816833,-1.23728 -4.032141,1.54728 0.06484,4.24423 12.369836,8.14278 16.109984,5.10407 31.216008,11.17632 33.977328,13.65805 1.54754,1.39084 2.07069,3.22797 1.58251,5.55722 -0.61637,2.9409 -0.49958,3.11834 0.75448,1.1462 C 112.79815,921.05 114.8421,920 116.52419,920 c 3.6396,0 14.4067,3.67649 25.47581,8.69887 19.66255,8.92148 40.3724,16.59761 44.66667,16.55577 l 4.66666,-0.0455 z M 394.65082,933 c -1.33026,-6.05 -4.53993,-19.4 -7.13261,-29.66667 -9.08863,-35.98981 -14.3245,-67.27382 -11.77711,-70.36752 1.41143,-1.71411 -0.088,-66.51795 -2.2673,-97.9912 -0.9886,-14.27733 -1.65605,-17.42175 -5.24583,-24.71363 -2.26221,-4.5952 -5.67055,-9.81805 -7.5741,-11.60633 -5.27572,-4.95628 -6.27143,-2.03848 -5.46416,16.01202 L 355.87547,730 351.92339,715.40316 c -2.17363,-8.02826 -4.60387,-14.99968 -5.40052,-15.49203 -2.64836,-1.63678 -11.64242,1.65007 -16.95237,6.19519 -6.37585,5.4575 -7.89607,9.56313 -3.7597,10.15381 1.70011,0.24278 2.78865,1.30547 2.68978,2.62591 -0.0913,1.21994 -0.5952,7.36965 -1.11969,13.66602 -0.93113,11.1781 -0.88483,11.44794 1.96428,11.44794 2.88585,0 2.90751,0.16624 1.97196,15.13919 -0.91672,14.67161 -0.85901,15.16192 1.86847,15.87518 2.74696,0.71834 2.81459,1.38592 2.82226,27.8608 0.0107,36.97121 3.10848,55.38378 18.88729,112.26275 5.03338,18.14419 5.84099,20.01619 9.63276,22.32835 2.31642,1.41253 6.78061,2.5732 10.13876,2.63605 3.3,0.0618 8.7,0.88563 12,1.83084 11.06671,3.16979 10.72851,3.54818 7.98415,-8.93316 z M 364.30934,793.33333 c 0,-2.56666 0.27439,-3.61666 0.60976,-2.33333 0.33537,1.28333 0.33537,3.38333 0,4.66667 -0.33537,1.28333 -0.60976,0.23333 -0.60976,-2.33334 z M 361.69649,776 c 0,-3.3 0.26002,-4.65 0.57782,-3 0.3178,1.65 0.3178,4.35 0,6 -0.3178,1.65 -0.57782,0.3 -0.57782,-3 z M 193.33333,922.93333 c 0,-1.99018 -3.18806,-4.26679 -5.93333,-4.23702 -2.55599,0.0277 -2.51706,0.19882 0.6,2.63702 3.56616,2.78949 5.33333,3.31965 5.33333,1.6 z m 45.33794,-58.6 c 0.0238,-5.15766 4.4619,-46.72038 6.15776,-57.66666 3.68557,-23.78939 2.24688,-65.57886 -2.87668,-83.55845 -1.50116,-5.26786 -3.4287,-8.18112 -8.18036,-12.3637 -6.15802,-5.42051 -11.69107,-7.93305 -13.50075,-6.13065 -1.67541,1.66867 -1.87607,40.69255 -0.35568,69.17171 1.26739,23.74 1.96648,29.16835 4.80144,37.28264 2.54826,7.29368 11.283,48.64154 11.283,53.41063 0,0.46996 0.6,0.85448 1.33333,0.85448 0.73334,0 1.33541,-0.45 1.33794,-1 z m 61.72167,-169.02791 c 33.70429,-4.66711 47.70809,-6.98821 61.42444,-10.18097 l 11.81738,-2.75073 -0.90558,-15.52019 c -2.21383,-37.94164 -5.35076,-65.5202 -7.45263,-65.5202 -0.56333,0 -3.53778,2.1 -6.60988,4.66667 -3.0721,2.56667 -6.09346,4.66667 -6.71413,4.66667 -3.05223,0 -2.10432,-2.99184 2.80791,-8.86247 6.61961,-7.91112 9.65744,-13.38855 7.99518,-14.41589 -0.67903,-0.41966 -4.03536,2.87678 -7.45851,7.32542 -3.42316,4.44865 -6.91539,7.85897 -7.76052,7.5785 -0.84513,-0.28047 -1.94352,-4.14958 -2.44086,-8.59803 -0.49735,-4.44845 -2.19301,-11.08386 -3.76814,-14.74535 l -2.86388,-6.65727 2.76814,-5.42601 c 4.22322,-8.27819 3.79623,-9.72815 -2.56519,-8.71092 -9.16422,1.46542 -7.3685,-2.28283 13.1035,-27.35124 17.68384,-21.65424 34.98005,-47.1643 33.19107,-48.95328 -0.38285,-0.38285 -3.60574,0.76087 -7.16199,2.54159 -3.55626,1.78073 -10.66592,4.60374 -15.79925,6.27336 -11.96444,3.89145 -18.10449,7.00412 -23.96293,12.1479 l -4.70374,4.12993 v -3.84145 c 0,-8.27005 3.23699,-10.22369 31.40755,-18.95558 23.07719,-7.15312 25.23978,-8.71103 32.38234,-23.32795 l 5.78989,-11.84873 3.29908,5.84873 c 4.31474,7.64935 11.34119,14.88865 20.62866,21.25355 9.44111,6.47019 46.51281,27.03963 48.73275,27.03963 2.88973,0 19.50536,-7.42448 26.4264,-11.8083 3.66667,-2.32249 10.86667,-8.66277 16,-14.08953 5.13333,-5.42675 18.33333,-19.07479 29.33333,-30.32899 l 20,-20.46218 L 556,415.81101 c -6.23333,-5.83611 -16.55041,-15.41595 -22.92684,-21.28855 l -11.59351,-10.67744 -13.21811,19.76392 c -7.26996,10.87016 -16.36989,23.21247 -20.22206,27.42736 -7.8463,8.5851 -7.8759,8.84765 -2.59145,22.98407 3.41722,9.1414 2.84317,14.61766 -1.68287,16.05416 -3.58542,1.13797 -6.43183,-2.27667 -6.43183,-7.71582 0,-3.9198 -4.25816,-13.53684 -6.64761,-15.0136 -0.83738,-0.51753 -1.35239,1.43751 -1.35239,5.13382 0,7.20881 -1.0074,10.18774 -3.44524,10.18774 -2.64806,0 -5.52371,-5.02911 -7.21827,-12.62373 -0.81287,-3.64305 -2.65435,-8.5272 -4.0922,-10.85368 -2.86778,-4.64017 -16.96168,-17.24964 -18.05655,-16.15477 -0.37609,0.37608 -1.21386,4.43385 -1.86172,9.01727 -1.86473,13.19238 -5.00719,13.95957 -7.9801,1.94824 -6.81965,-27.55321 -10.72683,-35.15272 -19.15502,-37.25673 -8.90374,-2.22272 -31.0018,4.27277 -37.85657,11.12753 -2.02801,2.02801 -6.31857,5.34835 -9.53458,7.37852 -6.36622,4.01882 -6.39329,3.93675 2.92224,8.85757 7.04568,3.7218 10.27801,7.30084 10.27801,11.38047 0,6.88578 -14.50472,25.99738 -50.47968,66.51264 -13.02306,14.66667 -26.56426,30.22782 -30.09156,34.58034 l -6.41328,7.91367 0.94279,-5.58034 c 0.76109,-4.50486 0.55462,-5.58034 -1.07131,-5.58034 -3.94863,0 -22.22029,24.33534 -22.22029,29.59438 0,3.24894 2.23188,3.04272 4.06112,-0.37524 0.81855,-1.52947 1.81429,-2.45483 2.21277,-2.05636 0.39848,0.39848 0.87252,8.69987 1.05342,18.44753 0.22676,12.21903 0.99737,19.58636 2.48139,23.72303 2.38269,6.64166 2.89489,17.42974 0.92125,19.40338 -4.33587,4.33587 -6.87925,69.57187 -2.90002,74.38377 2.26469,2.7386 -0.23257,2.839 28.56301,-1.1484 z m 58.27373,-35.14216 c 0,-0.64354 0.9,-1.91701 2,-2.82993 1.67093,-1.38675 2,-1.19424 2,1.17008 0,1.6266 -0.85043,2.82992 -2,2.82992 -1.1,0 -2,-0.52653 -2,-1.17007 z m -48.26319,-2.82993 c -4.83683,-7.42564 -17.07015,-28.65876 -17.07015,-29.6283 0,-4.76434 9.60016,7.64386 16.55912,21.40265 3.97384,7.85682 4.36427,14.14127 0.51103,8.22565 z M 358,638.66667 c -1.11605,-1.80582 0.3899,-4 2.74536,-4 1.05672,0 1.92131,1.2 1.92131,2.66666 0,2.76041 -3.21668,3.67946 -4.66667,1.33334 z m 0,-9.33334 c -1.11605,-1.80581 0.3899,-4 2.74536,-4 1.05672,0 1.92131,1.2 1.92131,2.66667 0,2.76041 -3.21668,3.67946 -4.66667,1.33333 z m -6.59689,-9.22043 c -1.15613,-1.87066 5.83335,-9.44623 8.71541,-9.44623 3.49007,0 3.19576,2.91181 -0.72152,7.13863 -3.31415,3.57603 -6.62014,4.53037 -7.99389,2.3076 z M 407.34712,418.7101 C 406.08221,414.72471 407.8603,408 410.179,408 c 1.51121,0 1.87293,1.44366 1.56072,6.22911 -0.4301,6.59264 -2.91715,9.12973 -4.3926,4.48099 z M 259.4147,695.86834 c 0.49798,-0.80574 1.44102,-8.75574 2.09565,-17.66666 0.65463,-8.91093 2.08308,-22.80168 3.17432,-30.86835 2.42053,-17.89289 2.74398,-28.35428 1.17491,-38 -1.39944,-8.60293 -4.59093,-9.88822 -8.27693,-3.33333 -9.09824,16.17958 -13.28531,21.41664 -19.68412,24.62029 -7.60483,3.80745 -22.40096,5.29847 -27.18293,2.73923 -4.72151,-2.52687 -27.09972,-3.45883 -28.90006,-1.20356 -1.94919,2.44172 -5.61972,20.11707 -5.92065,28.51071 -0.55647,15.52116 -9.8e-4,19.34846 3.28517,22.63461 4.32336,4.32336 10.25943,5.70009 34.99474,8.1162 11.63719,1.1367 25.05853,2.86127 29.8252,3.83236 11.22181,2.28618 14.3075,2.40999 15.4147,0.6185 z m -28.74803,-73.79273 c 0,-2.82505 -4.97229,-5.83634 -13.66397,-8.2751 -5.95427,-1.67068 -7.66937,-2.72906 -7.66937,-4.73273 0,-2.07158 0.59195,-2.39164 3,-1.62207 1.65,0.5273 5.93923,1.73697 9.53163,2.68814 3.59239,0.95117 7.16239,2.36017 7.93333,3.13111 2.06812,2.06811 12.2769,1.72096 14.10319,-0.47959 1.81697,-2.18931 1.07477,-2.78566 -5.12322,-4.11655 -2.50529,-0.53796 -5.67086,-2.01762 -7.0346,-3.28814 -1.36374,-1.27051 -4.86396,-3.09696 -7.77826,-4.05877 -2.9143,-0.9618 -5.29873,-2.5527 -5.29873,-3.53532 0,-0.98263 0.38038,-1.78659 0.8453,-1.78659 2.70639,0 12.02839,3.49192 13.1547,4.9276 2.21238,2.82009 14.36805,5.95884 15.59562,4.02699 1.88936,-2.97332 1.10447,-5.00789 -2.45386,-6.36076 C 239.42464,596.16672 228,588.74293 228,587.02182 c 0,-2.3031 2.55609,-1.96968 7.33333,0.95657 4.54185,2.78206 16.70666,9.35494 17.31373,9.35494 0.22054,0 0.76092,-0.938 1.20085,-2.08446 1.58353,-4.1266 -2.86058,-9.29026 -12.582,-14.61916 -10.26522,-5.627 -14.73909,-10.35653 -12.19924,-12.89638 1.06188,-1.06188 2.43827,-0.8241 5.0194,0.86712 4.13466,2.70913 21.2509,8.73288 24.81413,8.73288 3.68591,0 3.1846,-6.8292 -0.77433,-10.54841 -1.7641,-1.65729 -9.11106,-5.89507 -16.32657,-9.41728 l -13.1191,-6.40401 -17.3401,6.01461 c -9.53706,3.30804 -22.25614,8.04122 -28.26463,10.51819 -6.00848,2.47696 -12.23743,4.50357 -13.8421,4.50357 -3.70128,0 -14.5667,10.71697 -14.5667,14.36767 0,3.92955 12.44782,14.62595 19.12699,16.4358 3.04682,0.82559 6.28967,1.71372 7.20634,1.97362 2.99314,0.84864 1.75187,4.30531 -2,5.56959 l -3.66667,1.23558 3.33334,1.11288 c 7.98649,2.66643 43.72609,11.03769 47.66666,11.16493 2.95193,0.0953 4.33334,-0.47354 4.33334,-1.78446 z M 137.14855,615 c 3.7085,-7.37797 12.27014,-29.43416 14.10366,-36.33333 0.86668,-3.26113 0.8385,-3.27557 -1.30062,-0.66667 C 146.10973,582.68558 132,616.18156 132,620.6164 c 0,3.56269 1.18387,2.27124 5.14855,-5.6164 z m -14.00115,1.87018 c 1.16484,-2.45474 4.17896,-9.80474 6.69804,-16.33334 2.51908,-6.52859 6.73439,-16.48085 9.36735,-22.11612 C 141.84576,572.78545 144,567.91213 144,567.59113 c 0,-0.321 -2.25,-0.94981 -5,-1.39734 -2.75,-0.44754 -7.82252,-2.32422 -11.27226,-4.17041 -7.56183,-4.04685 -9.71748,-4.13675 -17.2488,-0.71933 -11.159386,5.0637 -15.334419,1.79017 -7.72709,-6.0586 l 4.43793,-4.57878 h -5.48584 c -6.124787,0 -9.70394,-1.0291 -9.70394,-2.79013 0,-0.64432 3.622441,-3.00009 8.04987,-5.23505 4.92644,-2.48686 8.50824,-5.26915 9.23119,-7.17068 1.28065,-3.36835 3.87024,-4.80414 8.66473,-4.80414 1.68356,0 3.75557,-0.83688 4.60447,-1.85974 0.93434,-1.12582 2.02474,-11.54576 2.76305,-26.40397 1.21791,-24.50997 2.94599,-34.29816 5.36442,-30.38505 0.65521,1.06015 1.56415,4.13448 2.01987,6.83184 0.45571,2.69736 1.64606,6.00964 2.6452,7.36061 1.69477,2.29154 1.94776,2.14328 3.77149,-2.21036 1.07518,-2.56667 3.54077,-11.86667 5.47908,-20.66667 1.93832,-8.8 4.43224,-19.21096 5.54205,-23.13547 1.80905,-6.39714 2.32032,-7.04059 4.94121,-6.21854 8.5666,2.68694 29.15509,7.48459 35.2567,8.21572 l 7,0.83878 0.0204,-6.51691 c 0.0252,-8.04051 0.72607,-9.18042 7.35964,-11.96978 4.86001,-2.04359 5.07559,-2.34364 2.67158,-3.71838 -1.43826,-0.82248 -4.28826,-3.09926 -6.33333,-5.05952 -3.40342,-3.26227 -3.71929,-4.39143 -3.7299,-13.33333 -0.0148,-12.51129 -1.36589,-23.76923 -2.85252,-23.76923 -0.63763,0 -9.41243,5.55 -19.49955,12.33333 -10.08712,6.78333 -23.32062,14.99595 -29.40777,18.25025 -11.7838,6.29983 -16.21955,10.80132 -22.06388,22.39087 -5.1815,10.27512 -7.45611,21.86768 -7.47831,38.1132 -0.0198,14.47148 -1.21851,19.57901 -4.59517,19.57901 -3.59241,0 -10.10835,9.59653 -19.212409,28.29559 -11.679034,23.98787 -13.545464,29.61969 -13.545464,40.87244 0,11.13182 2.33266,19.26144 7.811789,27.22508 4.554425,6.61963 31.839014,35.60689 33.515394,35.60689 0.5696,0 1.9887,-2.00842 3.15355,-4.46315 z M 111.15744,604.57173 C 106.09922,599.20846 105.39908,596 109.28694,596 c 3.52329,0 12.04639,7.64464 12.04639,10.80479 0,4.15615 -5.23317,3.00775 -10.17589,-2.23306 z m 76.43183,-44.69782 c 11.39259,-3.73601 27.03037,-9.13601 34.75062,-12 7.72024,-2.86398 14.56176,-5.20724 15.20336,-5.20724 0.64161,0 2.16798,2.1 3.39194,4.66666 4.26892,8.95203 6.4068,5.90342 12.53939,-17.88115 2.17783,-8.44645 4.43653,-15.67856 5.01933,-16.07135 1.24647,-0.84007 4.56126,-18.6436 4.7256,-25.38083 0.0978,-4.0098 -0.35537,-4.72817 -3.21951,-5.10362 -1.83333,-0.24032 -17.43333,-3.71759 -34.66667,-7.72728 -37.89082,-8.81607 -61.55353,-13.83577 -65.22139,-13.83577 -1.83157,0 -3.60726,1.73054 -5.41835,5.28057 -3.55616,6.97064 -18.62875,67.59928 -19.61583,78.90352 -0.73281,8.39237 -0.59844,8.96502 2.59454,11.05714 1.85205,1.21351 6.48538,2.69927 10.29628,3.3017 4.15184,0.65631 8.0702,2.2366 9.77646,3.94286 1.56616,1.56615 4.2612,2.84755 5.98899,2.84755 1.72779,0 12.46265,-3.05674 23.85524,-6.79276 z M 264.3489,548 c 2.16229,-4.03333 5.87388,-9.13333 8.24799,-11.33333 l 4.31656,-4 -1.69034,-8.25504 c -2.05594,-10.04041 -5.5475,-17.74496 -8.0417,-17.74496 -1.01644,0 -1.93691,1.35 -2.04549,3 -0.10858,1.65 -0.26636,3.9 -0.35063,5 -0.21649,2.82577 -5.01862,17.72826 -6.23367,19.34496 -1.63623,2.1771 -5.3062,19.4341 -4.43333,20.84644 1.97167,3.19023 6.45481,0.18497 10.23061,-6.85807 z m 59.76989,-60.95191 c 17.05716,-17.4779 45.21454,-49.62542 45.21454,-51.62181 0,-0.39935 -4.35,-2.90894 -9.66666,-5.57686 -12.12157,-6.08265 -17,-9.50358 -17,-11.92102 0,-1.03951 3.58939,-3.70193 7.97642,-5.9165 12.22264,-6.16997 12.80735,-13.50531 1.37103,-17.20005 -10.59901,-3.42424 -11.84566,-2.10574 -17.52509,18.53518 -6.84249,24.86785 -17.32301,54.66282 -26.64076,75.7367 C 303.53172,498.84645 300,507.41756 300,508.13064 c 0,2.81157 5.4439,-1.94701 24.11879,-21.08255 z m -72.78546,-21.04463 v -6.6632 l -16,-2.32881 c -8.8,-1.28085 -23.56922,-3.85249 -32.8205,-5.71475 -19.28989,-3.88302 -36.11667,-5.99165 -39.90586,-5.00076 -3.51014,0.91793 -3.29183,3.86051 0.46923,6.32486 1.69191,1.10858 13.54191,4.41091 26.33333,7.3385 12.79143,2.9276 29.85714,7.12056 37.9238,9.31769 8.06667,2.19713 16.76667,3.85864 19.33334,3.69223 l 4.66666,-0.30255 z m 17.12022,-17.88399 c 6.692,-9.31479 10.21312,-16.70739 10.21312,-21.44251 0,-4.69235 -3.27976,-13.34363 -5.05865,-13.34363 -1.84508,0 -5.00211,4.07115 -8.27163,10.66667 -1.63587,3.3 -4.40578,7.90997 -6.15535,10.24437 C 256.84571,437.36033 256,440.2139 256,444.9777 c 0,11.59107 5.4039,12.95436 12.45355,3.14177 z m -20.67329,2.71122 c 2.3764,-1.50636 1.84756,-3.23413 -13.51806,-44.16402 -7.02022,-18.7 -14.1873,-38.93617 -15.92683,-44.96927 -1.73954,-6.0331 -3.44495,-11.25143 -3.78981,-11.59629 -0.34486,-0.34486 -2.57059,2.22114 -4.94606,5.70221 -5.04085,7.387 -6.94995,16.73202 -6.84985,33.53001 0.0951,15.96461 1.64247,19.59714 10.99884,25.82082 l 7.74849,5.15414 -6.7228,6.17919 c -8.20601,7.54245 -9.51291,11.73924 -5.20496,16.71446 2.46916,2.85162 5.53154,4.08769 15.09745,6.09383 13.23613,2.77584 20.40492,3.2519 23.11359,1.53492 z m 70.34237,-3.58519 c 1.77144,-4.23966 1.75797,-5.64735 -0.12447,-13 C 315.38309,424.03121 309.97881,412 308.00573,412 c -1.96244,0 -5.33906,8.2714 -5.33906,13.0786 0,8.57539 8.23684,26.9214 12.08695,26.9214 0.76035,0 2.2764,-2.13952 3.36901,-4.7545 z M 263.9565,411.66667 c 14.8414,-30.9975 14.6716,-30.33334 7.75506,-30.33334 -5.27505,0 -11.05267,-3.21344 -19.71156,-10.96333 -7.64574,-6.84311 -25.99405,-19.70333 -28.1117,-19.70333 -3.80582,0 0.80544,14.68015 16.12459,51.33333 9.04989,21.65313 12.50306,28.66667 14.11422,28.66667 0.40277,0 4.826,-8.55 9.82939,-19 z m 62.02882,5.2408 c 1.97459,-4.72586 9.15276,-38.27013 10.67975,-49.90747 1.12461,-8.57084 -0.69621,-9.17946 -7.24584,-2.42196 -4.75194,4.90276 -13.57988,9.26784 -21.85901,10.80845 -2.80855,0.52262 -5.43044,1.7945 -5.82641,2.82639 -1.11235,2.89875 19.18867,43.12045 21.7641,43.12045 0.35099,0 1.47032,-1.99164 2.48741,-4.42586 z m 243.57636,-5.78079 C 570.90276,409.91303 572,408.46931 572,407.91842 c 0,-0.55088 -2.85,-3.07207 -6.33333,-5.60264 -3.48334,-2.53057 -13.11574,-10.98685 -21.40535,-18.79174 -8.2896,-7.80489 -15.6396,-14.19071 -16.33333,-14.19071 -2.48847,0 -1.1937,5.83834 2.33764,10.54082 8.98827,11.96915 31.73498,33.45918 35.41578,33.45918 0.79307,0 2.53919,-0.99299 3.88027,-2.20665 z M 567.377,379.86852 c 1.1846,-3.56648 1.95938,-8.10036 1.72174,-10.07528 -0.35874,-2.98131 0.21457,-3.7646 3.37786,-4.615 4.58757,-1.23331 8.4748,-4.57208 10.99324,-9.44221 2.15917,-4.17538 2.47654,-10.4027 0.53016,-10.4027 -0.73333,0 -1.33333,0.58781 -1.33333,1.30624 0,3.10021 -23.87445,11.26376 -26.1847,8.95351 -0.32468,-0.32468 0.63247,-2.66282 2.12701,-5.19587 3.923,-6.64899 4.94777,-19.02622 2.1307,-25.7345 -2.88847,-6.87826 -1.70962,-18.44133 2.73164,-26.7942 3.66574,-6.8943 4.1409,-14.85105 1.11159,-18.61367 -1.74735,-2.17032 -2.2128,-2.26528 -2.88301,-0.58817 -5.45934,13.6613 -23.31519,41.08396 -24.10491,37.01984 -0.24725,-1.27243 1.78139,-5.9279 4.50808,-10.34549 4.92822,-7.98435 4.94517,-8.06159 2.85722,-13.01984 -1.22598,-2.91132 -2.43831,-11.09385 -2.91203,-19.65451 -0.9501,-17.16956 -3.82774,-34.65778 -6.16655,-37.47587 -2.77005,-3.33771 -4.04325,0.61498 -3.05227,9.47587 0.49208,4.4 0.96338,24.2 1.04732,44 0.13072,30.83156 0.48551,36.83761 2.47127,41.8343 3.41484,8.59264 3.14981,22.7494 -0.51306,27.40599 -2.03245,2.58384 -2.50287,4.29365 -1.66667,6.05776 1.39693,2.94707 9.46064,11.63665 19.02339,20.49992 6.67433,6.18613 7.08375,6.36606 9.50316,4.17652 1.39059,-1.25846 3.49756,-5.20615 4.68215,-8.77264 z M 290.04943,369.4775 c 3.13119,-1.67821 8.89836,-2.89405 16.39078,-3.4555 6.35789,-0.47644 13.13209,-1.4669 15.05379,-2.20103 3.73026,-1.42504 23.24402,-29.78862 28.19597,-40.98334 4.69784,-10.62024 5.97111,-47.11649 2.08795,-59.84787 -1.77959,-5.83461 -3.84925,-6.64339 -17.11125,-6.68674 -7.83098,-0.0256 -14.13952,-0.92648 -20.41393,-2.91517 -4.99433,-1.58296 -10.99433,-2.69281 -13.33334,-2.46632 -4.15047,0.4019 -4.27987,0.61438 -5.38125,8.8363 -0.7501,5.59956 -1.82073,8.69012 -3.19281,9.21664 -3.39308,1.30205 -5.42089,-3.23214 -6.30068,-14.08832 -1.80813,-22.31149 -5.28967,-27.21612 -15.17788,-21.38188 -2.9479,1.73932 -11.33623,7.74584 -18.64073,13.34783 -14.84959,11.38851 -24.42676,15.65726 -37.55773,16.74029 -11.14018,0.91884 -18.83908,-1.21568 -25.23882,-6.99746 -4.66838,-4.2176 -8.09617,-5.8142 -8.09617,-3.77103 0,0.45314 2.32728,6.00314 5.17174,12.33333 2.84445,6.33019 8.00735,19.60944 11.4731,29.50944 12.11598,34.60959 18.57771,43.88318 38.79698,55.67969 5.193,3.02975 12.60829,8.35556 16.47842,11.83514 12.07315,10.8548 25.2727,13.47205 36.79586,7.296 z m 9.63766,-35.06926 c -0.43364,-1.29082 -4.34432,-1.74157 -15.10959,-1.74157 -12.58044,0 -14.58378,-0.30199 -14.96726,-2.25622 -0.67325,-3.43094 6.39857,-6.37616 18.67069,-7.77582 14.25503,-1.62582 17.71907,-0.1824 17.71907,7.38334 0,4.4218 -0.48145,5.38399 -2.86392,5.7236 -1.57516,0.22453 -3.1272,-0.37547 -3.44899,-1.33333 z M 231.5685,323.66667 c -4.89196,-6.55512 -6.23517,-9.71754 -6.23517,-14.67993 0,-5.12986 2.53316,-7.90028 12.33239,-13.48751 3.69475,-2.10663 8.59343,-6.67119 11.76066,-10.95851 l 5.42827,-7.34799 4.01247,5.53906 c 3.96234,5.46985 4.09028,5.52755 10.23935,4.61779 3.42477,-0.50671 9.50607,-2.06765 13.51398,-3.46876 4.00792,-1.40112 8.93681,-2.54749 10.95309,-2.54749 3.37474,0 6.76874,-3.39009 6.28657,-6.27932 -0.74986,-4.49326 3.50159,-6.45867 4.44313,-2.05401 1.15296,5.39374 -1.58816,11.74198 -7.23664,16.75955 l -5.73327,5.09289 6.25498,-0.58694 c 7.56819,-0.71016 18.08876,-6.57587 19.78198,-11.02937 1.91434,-5.03508 6.22011,-4.03232 13.29915,3.0972 7.16402,7.21513 8.96736,13.11224 6.64599,21.73316 -1.80205,6.69231 -4.40636,6.28836 -5.31543,-0.82447 -0.46178,-3.6131 -1.39635,-5.35508 -3.04092,-5.66809 -1.30584,-0.24854 -7.90584,2.26811 -14.66667,5.59256 -16.57698,8.15126 -18.27758,8.46242 -23.27377,4.2584 C 288.78,309.5412 286.51421,308 285.98355,308 c -0.53067,0 -2.96873,1.75944 -5.41793,3.90987 -5.29862,4.65224 -13.20339,6.17781 -25.02864,4.83037 -15.00689,-1.70998 -14.83393,-1.73184 -15.24359,1.92643 -1.19251,10.64918 -3.51553,11.98044 -8.72489,5 z M 264.66667,296 c -1.04531,-1.69134 -6.04951,-1.69134 -8.66667,0 -1.46232,0.94502 -0.45542,1.29799 3.74536,1.31292 3.49517,0.0124 5.42261,-0.50179 4.92131,-1.31292 z m 331.89108,23.66667 c 0.96525,-2.38334 2.12544,-8.08334 2.57819,-12.66667 0.6821,-6.9052 0.47827,-8.33333 -1.18938,-8.33333 -2.73079,0 -4.44287,5.03398 -5.46972,16.08247 -0.95666,10.29337 0.96557,12.60967 4.08091,4.91753 z m -9.25866,-4.93379 c 2.39639,-4.6341 2.54535,-16.1677 0.29232,-22.63273 -2.51696,-7.22238 -4.64566,-6.60283 -3.90208,1.13568 0.41874,4.35789 -0.0996,8.51318 -1.49786,12.00778 -1.176,2.93911 -1.85017,6.26166 -1.49816,7.38344 0.35201,1.12179 0.92119,2.93962 1.26484,4.03962 0.97922,3.13439 3.12112,2.35888 5.34094,-1.93379 z M 573.12501,311.5 c 0.64618,-0.825 2.22136,-4.89221 3.5004,-9.03825 2.02354,-6.5594 2.11838,-8.76626 0.73038,-16.99527 -1.57017,-9.30904 -3.1471,-12.21615 -5.39741,-9.9503 -0.96021,0.96683 -2.95153,11.58866 -6.24611,33.31715 -0.56888,3.75188 -0.28984,4.16667 2.80304,4.16667 1.88915,0 3.96351,-0.675 4.6097,-1.5 z M 183.73613,277.08179 c 0.29877,-3.49502 -0.47609,-5.75658 -3,-8.75607 -1.87154,-2.2242 -3.4028,-4.51024 -3.4028,-5.08008 0,-0.56985 -2.7,-3.62314 -6,-6.7851 -3.3,-3.16195 -6.01334,-6.8091 -6.02964,-8.10477 -0.0163,-1.29568 -1.20297,-3.85577 -2.63702,-5.6891 -1.89055,-2.41693 -2.61553,-5.45013 -2.63702,-11.033 -0.0266,-6.91626 0.29632,-7.82361 3.17416,-8.91776 1.7621,-0.66995 3.58243,-1.83069 4.04517,-2.57943 2.21543,-3.58463 -9.96034,-13.95845 -12.91508,-11.00372 -1.0723,1.07231 -0.85493,2.15153 0.80217,3.9826 1.78306,1.97026 1.98755,3.26263 0.94861,5.99525 -0.73117,1.92311 -0.95775,7.53132 -0.50584,12.51981 0.63972,7.06157 1.95302,11.07585 6.00975,18.36958 2.85512,5.13333 6.2913,10.26927 7.63595,11.41319 2.90485,2.47121 6.0296,8.37619 7.3622,13.91268 2.03953,8.47355 6.48189,9.56461 7.14939,1.75592 z m 190.34464,-19.15566 c 0.50096,-3.34063 0.57115,-8.1671 0.15598,-10.72549 -0.46741,-2.88031 0.23101,-7.73763 1.8341,-12.75576 2.20618,-6.90595 2.46163,-10.3335 1.72775,-23.1828 -0.91042,-15.94039 -2.05524,-20.12743 -4.53752,-16.59541 -0.82836,1.17867 -1.11746,5.55909 -0.70397,10.66666 0.77415,9.56249 -1.64671,25.81712 -5.03835,33.8295 -2.76114,6.5229 -2.77392,12.64575 -0.0406,19.47685 2.87017,7.17328 5.46196,6.89319 6.60266,-0.71355 z m -150.70128,-4.71417 c 16.64222,-3.07648 22.32119,-8.94654 22.51275,-23.27021 0.14781,-11.05299 -2.42126,-14.82488 -10.86696,-15.95481 -3.49724,-0.46789 -7.85861,-1.31296 -9.69195,-1.87794 -4.79769,-1.4785 -17.052,1.35802 -24.35393,5.63723 -11.05738,6.48006 -15.46778,16.27027 -11.10609,24.65332 5.74895,11.0493 15.39179,14.16103 33.50618,10.81241 z m 1.95384,-6.91505 c 0,-0.9367 1.8,-3.28256 4,-5.21302 2.51156,-2.20386 4,-4.79508 4,-6.96358 0,-3.90299 -2.72851,-4.59226 -5.40629,-1.36573 -2.36188,2.84589 -8.53057,5.91209 -11.89416,5.91209 -2.0069,0 -2.98581,-1.09798 -3.56621,-4 -0.44,-2.2 -1.6302,-4 -2.64488,-4 -1.01468,0 -4.32971,1.8 -7.36672,4 -6.28989,4.55637 -7.7884,4.90733 -7.7884,1.8241 0,-5.5473 19.02509,-17.8241 27.62162,-17.8241 7.82702,0 17.71171,7.90429 17.71171,14.16317 0,3.32864 -5.24031,10.54026 -9.47811,13.04358 -4.35327,2.57155 -5.18856,2.63972 -5.18856,0.42349 z m 125.63747,-2.69363 c 9.90408,-4.20303 13.05979,-16.17231 7.60622,-28.8495 l -2.75632,-6.40723 -10.24368,-1.79987 c -13.93312,-2.44812 -19.9116,-2.1613 -29.47151,1.41386 C 306.68793,211.48248 306,212.80128 306,227.33333 c 0,10.10611 2.3024,17.46168 5.79844,18.52454 4.97868,1.51361 34.26487,-0.17197 39.17236,-2.25459 z m -30.04652,-11.20363 c -1.32497,-0.34339 -2.96421,-2.08455 -3.64275,-3.86924 -0.67854,-1.78469 -2.74447,-3.81929 -4.59095,-4.52132 -3.42997,-1.30407 -4.32795,-3.25178 -2.1265,-4.61236 0.67692,-0.41835 1.62765,-2.5677 2.11275,-4.77632 0.87496,-3.9837 0.93683,-4.00874 7.76925,-3.1448 9.38749,1.18703 26.6374,6.68812 30.31819,9.66865 1.92499,1.55876 2.7077,3.23795 2.16659,4.64806 -1.05637,2.75284 -5.38698,2.87122 -7.59753,0.20768 -2.89388,-3.48691 -7.96841,-2.48853 -9.48656,1.86642 -1.69694,4.86785 -7.1912,6.53692 -14.92249,4.53323 z m -147.22726,6.78842 c -0.16663,-2.85344 -0.65157,-6.63171 -1.07762,-8.39616 -0.69791,-2.89026 -0.97831,-3.00443 -2.83036,-1.15238 -3.94126,3.94127 -1.62541,16.81799 2.74441,15.25961 0.8066,-0.28765 1.33021,-2.85763 1.16357,-5.71107 z M 278,225.33333 C 277.54678,224.6 275.74678,224 274,224 c -1.74678,0 -3.54678,0.6 -4,1.33333 -0.49137,0.79505 1.1235,1.33334 4,1.33334 2.8765,0 4.49137,-0.53829 4,-1.33334 z m -93.32973,-7 c 2.03021,-3.11666 5.75012,-8.21666 8.26645,-11.33333 4.44796,-5.50914 4.79378,-5.66667 12.44004,-5.66667 9.7873,0 35.08666,3.46447 43.25817,5.92374 3.36248,1.01195 8.58378,4.07158 11.6029,6.79918 5.4151,4.89221 5.60429,4.94852 13.99411,4.16507 10.29824,-0.96167 19.08065,-4.66323 27.10139,-11.42256 11.58952,-9.76684 13.04145,-10.17353 34.90858,-9.77815 12.92742,0.23374 19.87705,-0.1344 20.46395,-1.08402 1.30162,-2.10607 -2.9216,-6.17974 -7.31819,-7.05906 -4.90971,-0.98194 -6.05579,-4.5116 -8.72717,-26.87753 -2.79297,-23.38396 -5.93457,-40.53942 -8.26285,-45.12124 -1.68607,-3.318 -1.67858,-4.06231 0.0604,-6 1.17953,-1.3143 1.71036,-3.62998 1.30792,-5.70568 -0.57513,-2.96643 -0.0553,-3.71042 3.44501,-4.93064 4.40395,-1.535221 5.94456,-5.80264 1.69353,-4.690968 -1.49604,0.391222 -4.61689,-1.192916 -8.12616,-4.124826 -6.41828,-5.362327 -7.11604,-5.566223 -9.44502,-2.759979 -3.49938,4.216499 -10.68593,1.724728 -13.31222,-4.615711 -1.87802,-4.533927 -2.94639,-4.952483 -5.32516,-2.086239 -0.89681,1.080594 -3.65885,2.345225 -6.13787,2.81029 -5.40735,1.014426 -9.83697,5.676138 -22.89878,24.098583 -5.24737,7.40091 -11.49723,15.10254 -13.88857,17.11473 -6.54081,5.50372 -14.96156,4.20916 -33.77073,-5.19175 -8.06667,-4.03176 -19.0932,-8.60854 -24.50341,-10.17063 -5.41021,-1.56209 -10.76438,-3.19613 -11.89815,-3.6312 -1.52651,-0.58578 -1.83392,-0.19824 -1.18473,1.49354 0.60275,1.57073 -0.77794,4.07961 -4.41883,8.02951 -5.65396,6.13382 -9.32821,13.42988 -9.32821,18.52326 0,1.73362 -1.78218,4.83414 -4,6.95895 -2.95431,2.83041 -4,5.05362 -4,8.50429 0,4.25814 0.1601,4.4531 1.80719,2.20058 2.91793,-3.99052 5.51627,-1.56704 8.02795,7.48772 1.29284,4.66074 4.40882,13.22972 6.9244,19.04218 5.08975,11.76028 5.61643,17.14805 2.3925,24.47472 l -2.18128,4.95718 -1.58527,-7.33334 c -2.29349,-10.60957 -4.57746,-16.88949 -6.81925,-18.75001 -1.08021,-0.89649 -2.2103,-1.38371 -2.51131,-1.0827 -0.30101,0.30101 0.54983,7.13651 1.89074,15.19 1.34092,8.05349 2.83846,17.49271 3.32787,20.97605 0.48942,3.48333 1.37336,6.33333 1.96431,6.33333 0.59095,0 2.73553,-2.55 4.76575,-5.66667 z m 94.1136,-13.75358 c -1.60572,-6.37688 -0.55323,-9.83065 2.43329,-7.98488 1.70701,1.05499 1.90743,9.95167 0.28194,12.51591 -0.77156,1.21714 -1.62747,-0.21115 -2.71523,-4.53103 z M 267.14884,206 c -1.02469,-2.67029 0.48746,-6.38216 2.17508,-5.33915 1.76683,1.09196 1.73923,7.33915 -0.0324,7.33915 -0.75635,0 -1.72055,-0.9 -2.14265,-2 z m 82.92849,-47.66667 c -0.51358,-4.58333 -1.64108,-11.33333 -2.50555,-15 L 346,136.66667 l -0.40339,7.78456 c -0.46422,8.95846 1.92484,22.21544 4.00348,22.21544 0.94157,0 1.10035,-2.77254 0.47724,-8.33334 z m -10.03777,-42.25941 c -0.80669,-1.50732 -2.02678,-2.74059 -2.71129,-2.74059 -1.3858,0 -0.3451,3.68488 1.82997,6.47954 2.00077,2.5707 2.69099,-0.35754 0.88132,-3.73895 z M 164.70346,94.550748 c 1.2458,-3.925163 -0.50346,-12.171183 -2.44661,-11.5333 -1.69629,0.556848 -2.91156,9.353238 -1.72088,12.4561 1.04842,2.732116 3.15555,2.265536 4.16749,-0.9228 z M 358.42313,92.97583 c 0.30841,-2.673601 -0.70187,-4.79303 -3.7265,-7.817659 -4.4249,-4.424899 -7.42205,-4.309711 -3.40344,0.130803 1.6581,1.832176 2.15085,3.824169 1.6122,6.517434 -0.42667,2.133327 -0.38419,4.270352 0.0944,4.748944 1.92166,1.921666 5.02502,-0.126619 5.42333,-3.579522 z M 196.55426,89.812127 c 1.45225,-3.784502 -2.94537,-8.307942 -12.91708,-13.286642 -5.30045,-2.646424 -10.83718,-5.904325 -12.30385,-7.23978 -2.19938,-2.002618 -3.06355,-2.135786 -4.93157,-0.759949 -2.02915,1.494514 -1.474,2.362377 5.33333,8.337557 16.12042,14.149798 22.98416,17.730791 24.81917,12.948814 z m 18.11241,-5.544276 c 0,-0.586015 -2.25,-1.87081 -5,-2.855099 -2.75,-0.98429 -5.75,-2.069016 -6.66667,-2.410503 -3.03373,-1.13016 -1.72732,3.725969 1.33333,4.956202 3.78676,1.52209 10.33334,1.718108 10.33334,0.3094 z m 132.29657,-6.38629 c 0.995,-2.183796 1.05176,-3.733228 0.16909,-4.6159 -1.74468,-1.744678 -5.27927,2.15128 -6.54236,7.211224 -0.89778,3.596554 -0.78775,3.722786 1.96219,2.251062 1.60232,-0.857536 3.58731,-3.03841 4.41108,-4.846386 z M 237.03981,77.293026 234,71.919385 l 3.0215,-2.314979 c 1.66183,-1.273238 3.63808,-4.54804 4.39167,-7.277336 1.68129,-6.089114 2.88758,-6.754354 20.1352,-11.104044 7.58173,-1.912044 14.01906,-3.703519 14.30518,-3.981057 0.90352,-0.876436 -10.45428,-15.137293 -13.80369,-17.331911 -3.81396,-2.498997 -7.23456,-1.170501 -9.92368,3.854166 -1.7071,3.189755 -1.92904,3.236859 -6.41657,1.361846 -3.66692,-1.532134 -4.52699,-1.574528 -4.07367,-0.200796 0.31605,0.957766 1.86036,2.388294 3.43179,3.178952 3.50043,1.761223 1.43294,4.562441 -3.3674,4.562441 -2.06574,0 -3.51549,1.093704 -4.34629,3.278874 -0.68565,1.80338 -3.72035,4.915906 -6.74379,6.916722 l -5.49716,3.637848 5.65589,2.885417 5.65588,2.885417 -3.63148,0.911443 c -2.40881,0.604573 -4.09545,2.242393 -5.00953,4.864528 C 227.02592,70.221112 226.11928,72 225.76908,72 c -3.07164,0 -29.44227,-11.716002 -34.55933,-15.354099 -6.98182,-4.963892 -9.87642,-5.779839 -9.87642,-2.784024 0,2.663364 7.81415,9.15866 17.58975,14.621005 8.3494,4.665419 34.235,14.116955 38.7834,14.160871 2.16335,0.02089 2.10442,-0.452134 -0.66667,-5.350727 z m 106.13475,-9.601341 c 1.11056,-1.771732 0.93379,-2.821428 -0.76044,-4.515659 C 339.22951,59.99141 336,61.774567 336,66.717555 c 0,3.47282 0.45837,4.066387 2.86383,3.708513 1.57511,-0.234337 3.51494,-1.46481 4.31073,-2.734383 z M 292,48.144205 c 0,-1.675746 -12.19853,-15.056783 -12.99767,-14.257644 -1.10791,1.107904 10.57523,15.446772 12.58584,15.446772 0.22651,0 0.41183,-0.535108 0.41183,-1.189128 z M 139.94181,1016.8787 c -11.02413,-3.2645 -18.7189,-7.21 -19.67901,-10.0903 -1.02229,-3.0669 8.35492,-1.0171 21.63695,4.7296 11.29859,4.8886 15.91091,8.5674 10.54469,8.4106 -1.34444,-0.039 -6.97063,-1.4118 -12.50263,-3.0499 z M 436,198 v -20.66667 h 12 c 11.91111,0 12,0.0247 12,3.33334 0,3.15151 -0.4,3.33333 -7.33333,3.33333 h -7.33334 v 4.66667 4.66666 H 452 c 6.22222,0 6.66667,0.22223 6.66667,3.33334 0,3.11111 -0.44445,3.33333 -6.66667,3.33333 h -6.66667 v 6 6 h 7.33334 C 459.6,212 460,212.18182 460,215.33333 c 0,3.30865 -0.0889,3.33334 -12,3.33334 h -12 z m 65.33333,4.66667 v -16 h 4 c 2.73143,0 4,0.65826 4,2.0756 0,1.87859 0.28129,1.87859 2.96334,0 3.74811,-2.62527 11.58517,-2.67667 15.26373,-0.10011 2.49149,1.74511 3.01162,1.74511 4.45994,0 1.71158,-2.06233 11.46648,-2.72246 14.11339,-0.95508 3.28083,2.19067 4.53294,7.40908 4.53294,18.89193 v 12.08766 h -4.61664 -4.61663 l -0.38337,-12.33334 c -0.37118,-11.94147 -0.4869,-12.34794 -3.64199,-12.79329 -5.06843,-0.71541 -6.74137,2.93622 -6.74137,14.7148 v 10.41183 h -4.61664 -4.61663 l -0.38337,-12.33334 c -0.37118,-11.94147 -0.4869,-12.34794 -3.64199,-12.79329 -5.06843,-0.71541 -6.74137,2.93622 -6.74137,14.7148 v 10.41183 H 506 501.33333 Z m 62.33331,14.59194 c -8.49994,-5.06767 -8.22533,-24.16608 0.4117,-28.63246 4.01754,-2.07755 14.16161,-2.61348 16.87153,-0.89136 0.90787,0.57694 1.27908,2.31768 0.84678,3.97084 -0.67874,2.59549 -1.38143,2.84574 -5.94265,2.11637 -7.0579,-1.1286 -9.18733,0.92141 -9.18733,8.84467 0,7.92729 2.11469,9.93732 9.42341,8.95702 5.21005,-0.69882 5.3836,-0.60047 4.98724,2.82615 -0.38379,3.31793 -0.89036,3.57141 -7.74399,3.87504 -4.03333,0.17869 -8.38334,-0.30113 -9.66669,-1.06627 z M 466.66667,203.33333 V 200 h 14 14 v 3.33333 3.33334 h -14 -14 z m 124,-3.75054 c 0,-0.9628 1.84203,-3.5128 4.09339,-5.66667 5.42887,-5.19375 9.65298,-12.16911 8.49953,-14.03544 -0.58202,-0.94173 -2.85322,-1.1934 -6.09372,-0.67522 -4.03961,0.64596 -5.16587,0.39681 -5.16587,-1.14279 0,-4.48769 9.29973,-6.20508 14.36999,-2.65373 4.50696,3.15679 3.71357,7.83674 -2.46486,14.53955 l -5.42821,5.88891 5.75004,0.41463 c 4.21354,0.30384 5.86831,1.03814 6.19264,2.74797 0.38995,2.05578 -0.75853,2.33333 -9.65517,2.33333 -7.44737,0 -10.09776,-0.45947 -10.09776,-1.75054 z m -124,-6.91612 v -3.33334 h 14 14 V 192.66667 196 h -14 -14 z"
       id="path1" />
  </g>
</svg>
